<svg width="80" height="80" viewBox="0 0 80 80" fill="none" xmlns="http://www.w3.org/2000/svg">
<path d="M40 7.48877C32.085 7.4891 24.4283 10.3058 18.3999 15.4349C12.3716 20.564 8.36505 27.6708 7.09716 35.4837C5.82927 43.2966 7.38278 51.3057 11.4797 58.0779C15.5767 64.8502 21.9497 69.9437 29.4584 72.4471C31.1251 72.7388 31.7501 71.7388 31.7501 70.8637C31.7501 70.0721 31.7084 67.4471 31.7084 64.6554C23.3334 66.1971 21.1667 62.6139 20.5 60.7389C19.7603 58.9153 18.5876 57.2993 17.0834 56.0304C15.9167 55.4054 14.25 53.8638 17.0417 53.8222C18.1076 53.9378 19.13 54.3088 20.0222 54.9035C20.9143 55.4982 21.6499 56.2993 22.1667 57.2387C22.6226 58.0577 23.2356 58.7787 23.9707 59.3604C24.7057 59.9421 25.5483 60.373 26.4502 60.6284C27.352 60.8839 28.2954 60.9589 29.2263 60.8491C30.1572 60.7394 31.0573 60.447 31.875 59.9887C32.0193 58.2941 32.7745 56.7097 34 55.5305C26.5834 54.6972 18.8334 51.8221 18.8334 39.0722C18.7865 35.7594 20.009 32.5541 22.25 30.1139C21.231 27.2346 21.3502 24.0748 22.5834 21.2805C22.5834 21.2805 25.3749 20.4055 31.75 24.6972C37.2043 23.1971 42.9624 23.1971 48.4167 24.6972C54.7916 20.3639 57.5834 21.2805 57.5834 21.2805C58.8167 24.0748 58.9359 27.2346 57.9167 30.1139C60.1645 32.5499 61.388 35.758 61.3334 39.0722C61.3334 51.8638 53.5416 54.6972 46.125 55.5305C46.9205 56.3368 47.5332 57.3049 47.9215 58.3689C48.3097 59.4329 48.4644 60.5681 48.375 61.6972C48.375 66.1556 48.3333 69.7388 48.3333 70.8639C48.3333 71.7389 48.9583 72.7805 50.625 72.4472C58.1206 69.9234 64.4753 64.818 68.5548 58.0423C72.6342 51.2665 74.173 43.2615 72.8963 35.4562C71.6196 27.6509 67.6106 20.5533 61.5849 15.4305C55.5592 10.3076 47.9091 7.49289 40 7.48877V7.48877Z" fill="url(#paint0_linear_144_28)"/>
<defs>
<linearGradient id="paint0_linear_144_28" x1="40.0002" y1="7.48877" x2="40.0002" y2="72.5109" gradientUnits="userSpaceOnUse">
<stop stop-color="#1EAE98"/>
<stop offset="1" stop-color="#1194A6"/>
</linearGradient>
</defs>
</svg>
