<svg width="80" height="80" viewBox="0 0 80 80" fill="none" xmlns="http://www.w3.org/2000/svg">
<path d="M68.2333 6.66648H11.7666C11.1319 6.65767 10.5016 6.77397 9.91186 7.00876C9.32207 7.24355 8.78432 7.59222 8.3293 8.03486C7.87428 8.47749 7.51091 9.00543 7.25994 9.58851C7.00898 10.1716 6.87533 10.7984 6.86664 11.4331V68.5665C6.87533 69.2012 7.00898 69.828 7.25994 70.4111C7.51091 70.9942 7.87428 71.5221 8.3293 71.9648C8.78432 72.4074 9.32207 72.7561 9.91186 72.9909C10.5016 73.2257 11.1319 73.342 11.7666 73.3331H68.2333C68.868 73.342 69.4983 73.2257 70.0881 72.9909C70.6779 72.7561 71.2156 72.4074 71.6706 71.9648C72.1257 71.5221 72.489 70.9942 72.74 70.4111C72.991 69.828 73.1246 69.2012 73.1333 68.5665V11.4331C73.1246 10.7984 72.991 10.1716 72.74 9.58851C72.489 9.00543 72.1257 8.47749 71.6706 8.03486C71.2156 7.59222 70.6779 7.24355 70.0881 7.00876C69.4983 6.77397 68.868 6.65767 68.2333 6.66648V6.66648ZM26.9666 62.4665H16.9666V32.4665H26.9666V62.4665ZM21.9666 28.2665C20.5875 28.2665 19.2649 27.7186 18.2897 26.7434C17.3145 25.7682 16.7666 24.4456 16.7666 23.0665C16.7666 21.6874 17.3145 20.3647 18.2897 19.3895C19.2649 18.4143 20.5875 17.8665 21.9666 17.8665C22.699 17.7834 23.4406 17.856 24.1429 18.0794C24.8452 18.3029 25.4924 18.6721 26.0422 19.163C26.5919 19.6539 27.0317 20.2554 27.3329 20.9281C27.634 21.6008 27.7897 22.3295 27.7897 23.0665C27.7897 23.8035 27.634 24.5322 27.3329 25.2049C27.0317 25.8776 26.5919 26.479 26.0422 26.9699C25.4924 27.4609 24.8452 27.8301 24.1429 28.0535C23.4406 28.277 22.699 28.3495 21.9666 28.2665V28.2665ZM63.0333 62.4665H53.0333V46.3665C53.0333 42.3332 51.6 39.6998 47.9666 39.6998C46.8422 39.708 45.7473 40.0607 44.8294 40.7104C43.9116 41.36 43.2149 42.2754 42.8333 43.3332C42.5725 44.1166 42.4594 44.9417 42.5 45.7665V62.4331H32.5C32.5 62.4331 32.5 35.1665 32.5 32.4331H42.5V36.6665C43.4084 35.0902 44.7297 33.7915 46.3214 32.9105C47.9132 32.0294 49.7152 31.5993 51.5333 31.6665C58.2 31.6665 63.0333 35.9665 63.0333 45.1998V62.4665Z" fill="url(#paint0_linear_144_30)"/>
<defs>
<linearGradient id="paint0_linear_144_30" x1="40" y1="6.66602" x2="40" y2="73.3336" gradientUnits="userSpaceOnUse">
<stop stop-color="#1EAE98"/>
<stop offset="1" stop-color="#1194A6"/>
</linearGradient>
</defs>
</svg>
