<svg width="80" height="80" viewBox="0 0 80 80" fill="none" xmlns="http://www.w3.org/2000/svg">
<path d="M55.3334 46.6668C54.6667 46.3335 50.3334 44.3335 49.6667 44.0002C49 43.6668 48.3334 43.6668 47.6667 44.3335C47 45.0002 45.6667 47.0002 45 47.6668C44.6667 48.3335 44 48.3335 43.3334 48.0002C41 47.0002 38.6667 45.6668 36.6667 44.0002C35 42.3335 33.3334 40.3335 32 38.3335C31.6667 37.6668 32 37.0002 32.3334 36.6668C32.6667 36.3335 33 35.6668 33.6667 35.3335C34 35.0002 34.3334 34.3335 34.3334 34.0002C34.6667 33.6668 34.6667 33.0002 34.3334 32.6668C34 32.3335 32.3334 28.3335 31.6667 26.6668C31.3334 24.3335 30.6667 24.3335 30 24.3335C29.6667 24.3335 29 24.3335 28.3334 24.3335C27.6667 24.3335 26.6667 25.0002 26.3334 25.3335C24.3334 27.3335 23.3334 29.6668 23.3334 32.3335C23.6667 35.3335 24.6667 38.3335 26.6667 41.0002C30.3334 46.3335 35 50.6668 40.6667 53.3335C42.3334 54.0002 43.6667 54.6668 45.3334 55.0002C47 55.6668 48.6667 55.6668 50.6667 55.3335C53 55.0002 55 53.3335 56.3334 51.3335C57 50.0002 57 48.6668 56.6667 47.3335C56.6667 47.3335 56 47.0002 55.3334 46.6668ZM63.6667 16.3335C50.6667 3.3335 29.6667 3.3335 16.6667 16.3335C6.00002 27.0002 4.00002 43.3335 11.3334 56.3335L6.66669 73.3335L24.3334 68.6668C29.3334 71.3335 34.6667 72.6668 40 72.6668C58.3334 72.6668 73 58.0002 73 39.6668C73.3334 31.0002 69.6667 22.6668 63.6667 16.3335ZM54.6667 63.0002C50.3334 65.6668 45.3334 67.3335 40 67.3335C35 67.3335 30.3334 66.0002 26 63.6668L25 63.0002L14.6667 65.6668L17.3334 55.6668L16.6667 54.6668C8.66669 41.3335 12.6667 24.6668 25.6667 16.3335C38.6667 8.00016 55.3334 12.3335 63.3334 25.0002C71.3334 38.0002 67.6667 55.0002 54.6667 63.0002Z" fill="url(#paint0_linear_141_26)"/>
<defs>
<linearGradient id="paint0_linear_141_26" x1="39.8438" y1="6.5835" x2="39.8438" y2="73.3335" gradientUnits="userSpaceOnUse">
<stop stop-color="#1EAE98"/>
<stop offset="1" stop-color="#1194A6"/>
</linearGradient>
</defs>
</svg>
