<svg width="67" height="67" viewBox="0 0 67 67" fill="none" xmlns="http://www.w3.org/2000/svg">
<g filter="url(#filter0_d_113_24)">
<path d="M28.0238 14.3335C27.4823 14.3335 26.9529 14.4941 26.5026 14.7949C26.0523 15.0958 25.7014 15.5234 25.4941 16.0238C25.2869 16.5241 25.2327 17.0746 25.3383 17.6058C25.444 18.1369 25.7047 18.6248 26.0877 19.0077C26.4706 19.3906 26.9585 19.6514 27.4896 19.7571C28.0208 19.8627 28.5713 19.8085 29.0716 19.6012C29.572 19.394 29.9996 19.0431 30.3004 18.5928C30.6013 18.1425 30.7619 17.6131 30.7619 17.0716C30.7619 16.3454 30.4734 15.6489 29.9599 15.1355C29.4464 14.622 28.75 14.3335 28.0238 14.3335ZM17.0714 14.3335C16.5299 14.3335 16.0005 14.4941 15.5502 14.7949C15.0999 15.0958 14.749 15.5234 14.5418 16.0238C14.3345 16.5241 14.2803 17.0746 14.3859 17.6058C14.4916 18.1369 14.7524 18.6248 15.1353 19.0077C15.5182 19.3906 16.0061 19.6514 16.5372 19.7571C17.0684 19.8627 17.6189 19.8085 18.1192 19.6012C18.6196 19.394 19.0472 19.0431 19.3481 18.5928C19.6489 18.1425 19.8095 17.6131 19.8095 17.0716C19.8095 16.3454 19.521 15.6489 19.0076 15.1355C18.4941 14.622 17.7976 14.3335 17.0714 14.3335ZM38.9762 14.3335C38.4346 14.3335 37.9053 14.4941 37.455 14.7949C37.0047 15.0958 36.6538 15.5234 36.4465 16.0238C36.2393 16.5241 36.185 17.0746 36.2907 17.6058C36.3963 18.1369 36.6571 18.6248 37.0401 19.0077C37.423 19.3906 37.9109 19.6514 38.442 19.7571C38.9731 19.8627 39.5237 19.8085 40.024 19.6012C40.5243 19.394 40.952 19.0431 41.2528 18.5928C41.5537 18.1425 41.7143 17.6131 41.7143 17.0716C41.7143 16.3454 41.4258 15.6489 40.9123 15.1355C40.3988 14.622 39.7024 14.3335 38.9762 14.3335ZM55.4048 3.3811H11.5952C9.41667 3.3811 7.32734 4.24653 5.78686 5.78701C4.24638 7.32749 3.38095 9.41682 3.38095 11.5954V55.4049C3.38095 57.5835 4.24638 59.6728 5.78686 61.2133C7.32734 62.7538 9.41667 63.6192 11.5952 63.6192H55.4048C57.5833 63.6192 59.6727 62.7538 61.2131 61.2133C62.7536 59.6728 63.619 57.5835 63.619 55.4049V11.5954C63.619 9.41682 62.7536 7.32749 61.2131 5.78701C59.6727 4.24653 57.5833 3.3811 55.4048 3.3811ZM58.1428 55.4049C58.1428 56.1311 57.8544 56.8275 57.3409 57.341C56.8274 57.8545 56.1309 58.143 55.4048 58.143H11.5952C10.869 58.143 10.1726 57.8545 9.65911 57.341C9.14562 56.8275 8.85714 56.1311 8.85714 55.4049V30.7621H58.1428V55.4049ZM58.1428 25.2859H8.85714V11.5954C8.85714 10.8692 9.14562 10.1728 9.65911 9.65926C10.1726 9.14577 10.869 8.85729 11.5952 8.85729H55.4048C56.1309 8.85729 56.8274 9.14577 57.3409 9.65926C57.8544 10.1728 58.1428 10.8692 58.1428 11.5954V25.2859Z" fill="url(#paint0_linear_113_24)"/>
</g>
<defs>
<filter id="filter0_d_113_24" x="-16.619" y="-12.6189" width="100.238" height="100.238" filterUnits="userSpaceOnUse" color-interpolation-filters="sRGB">
<feFlood flood-opacity="0" result="BackgroundImageFix"/>
<feColorMatrix in="SourceAlpha" type="matrix" values="0 0 0 0 0 0 0 0 0 0 0 0 0 0 0 0 0 0 127 0" result="hardAlpha"/>
<feOffset dy="4"/>
<feGaussianBlur stdDeviation="10"/>
<feComposite in2="hardAlpha" operator="out"/>
<feColorMatrix type="matrix" values="0 0 0 0 0.137255 0 0 0 0 0.137255 0 0 0 0 0.137255 0 0 0 0.25 0"/>
<feBlend mode="normal" in2="BackgroundImageFix" result="effect1_dropShadow_113_24"/>
<feBlend mode="normal" in="SourceGraphic" in2="effect1_dropShadow_113_24" result="shape"/>
</filter>
<linearGradient id="paint0_linear_113_24" x1="33.5" y1="3.3811" x2="33.5" y2="63.6192" gradientUnits="userSpaceOnUse">
<stop stop-color="#1EAE98"/>
<stop offset="0.953125" stop-color="#1194A6"/>
</linearGradient>
</defs>
</svg>
