<svg width="60" height="60" viewBox="0 0 60 60" fill="none" xmlns="http://www.w3.org/2000/svg">
<path d="M57 0H21C20.2044 0 19.4413 0.31607 18.8787 0.87868C18.3161 1.44129 18 2.20435 18 3V15H12C11.2044 15 10.4413 15.3161 9.87868 15.8787C9.31607 16.4413 9 17.2044 9 18V30H3C2.20435 30 1.44129 30.3161 0.87868 30.8787C0.31607 31.4413 0 32.2044 0 33V57C0 57.7956 0.31607 58.5587 0.87868 59.1213C1.44129 59.6839 2.20435 60 3 60H27C27.7956 60 28.5587 59.6839 29.1213 59.1213C29.6839 58.5587 30 57.7956 30 57V51H42C42.7956 51 43.5587 50.6839 44.1213 50.1213C44.6839 49.5587 45 48.7956 45 48V42H57C57.7956 42 58.5587 41.6839 59.1213 41.1213C59.6839 40.5587 60 39.7956 60 39V3C60 2.20435 59.6839 1.44129 59.1213 0.87868C58.5587 0.31607 57.7956 0 57 0V0ZM24 54H6V36H24V54ZM39 45H30V33C30 32.2044 29.6839 31.4413 29.1213 30.8787C28.5587 30.3161 27.7956 30 27 30H15V21H39V45ZM54 36H45V18C45 17.2044 44.6839 16.4413 44.1213 15.8787C43.5587 15.3161 42.7956 15 42 15H24V6H54V36Z" fill="url(#paint0_linear_117_34)"/>
<defs>
<linearGradient id="paint0_linear_117_34" x1="30" y1="0" x2="30" y2="60" gradientUnits="userSpaceOnUse">
<stop stop-color="#1EAE98"/>
<stop offset="0.0001" stop-color="#FFE300"/>
<stop offset="0.953125" stop-color="#CC8700"/>
</linearGradient>
</defs>
</svg>
