<svg width="60" height="60" viewBox="0 0 60 60" fill="none" xmlns="http://www.w3.org/2000/svg">
<path d="M57.2754 44.4604L51.0269 38.0849C49.6829 36.8121 47.9875 35.9688 46.1586 35.6633C44.3297 35.3579 42.451 35.6042 40.7637 36.3708L38.047 33.6643C41.2484 29.4027 42.7104 24.0911 42.1388 18.7988C41.5672 13.5065 39.0044 8.62639 34.9663 5.14089C30.9283 1.65539 25.7147 -0.176695 20.3753 0.0134473C15.0358 0.20359 9.96685 2.40184 6.18886 6.16568C2.41087 9.92951 0.204355 14.9795 0.0134979 20.2989C-0.177359 25.6184 1.66161 30.8124 5.16022 34.8354C8.65882 38.8583 13.5573 41.4115 18.8695 41.981C24.1817 42.5504 29.5132 41.0939 33.7908 37.9045L36.4774 40.581C35.6173 42.2639 35.3091 44.1734 35.5961 46.0401C35.8832 47.9068 36.7509 49.6368 38.0772 50.9861L44.4766 57.3615C46.1745 59.051 48.4762 60 50.876 60C53.2757 60 55.5774 59.051 57.2754 57.3615C58.1379 56.5213 58.8232 55.5179 59.2911 54.4102C59.759 53.3024 60 52.1128 60 50.9109C60 49.7091 59.759 48.5194 59.2911 47.4117C58.8232 46.304 58.1379 45.3006 57.2754 44.4604V44.4604ZM31.6778 31.7095C29.5655 33.8086 26.8762 35.2369 23.9495 35.814C21.0228 36.3911 17.9901 36.0911 15.2344 34.9519C12.4788 33.8127 10.1238 31.8855 8.46711 29.4136C6.81037 26.9417 5.92615 24.0361 5.92615 21.0638C5.92615 18.0915 6.81037 15.1859 8.46711 12.714C10.1238 10.2421 12.4788 8.31483 15.2344 7.17565C17.9901 6.03647 21.0228 5.73648 23.9495 6.31358C26.8762 6.89068 29.5655 8.31898 31.6778 10.418C33.0834 11.8148 34.1985 13.4741 34.9594 15.3008C35.7203 17.1276 36.1119 19.086 36.1119 21.0638C36.1119 23.0416 35.7203 25 34.9594 26.8267C34.1985 28.6535 33.0834 30.3128 31.6778 31.7095V31.7095ZM53.0192 52.9709C52.7385 53.2528 52.4047 53.4765 52.0368 53.6292C51.669 53.7819 51.2745 53.8605 50.876 53.8605C50.4775 53.8605 50.0829 53.7819 49.7151 53.6292C49.3473 53.4765 49.0134 53.2528 48.7328 52.9709L42.3334 46.5955C42.0505 46.316 41.8259 45.9833 41.6727 45.6169C41.5194 45.2504 41.4405 44.8573 41.4405 44.4604C41.4405 44.0634 41.5194 43.6703 41.6727 43.3038C41.8259 42.9374 42.0505 42.6048 42.3334 42.3252C42.614 42.0433 42.9479 41.8196 43.3157 41.6669C43.6836 41.5143 44.0781 41.4356 44.4766 41.4356C44.8751 41.4356 45.2696 41.5143 45.6375 41.6669C46.0053 41.8196 46.3392 42.0433 46.6198 42.3252L53.0192 48.7006C53.3021 48.9802 53.5266 49.3128 53.6799 49.6792C53.8331 50.0457 53.9121 50.4388 53.9121 50.8358C53.9121 51.2328 53.8331 51.6258 53.6799 51.9923C53.5266 52.3588 53.3021 52.6914 53.0192 52.9709V52.9709Z" fill="url(#paint0_linear_127_4)"/>
<defs>
<linearGradient id="paint0_linear_127_4" x1="30" y1="0" x2="30" y2="60" gradientUnits="userSpaceOnUse">
<stop stop-color="#E6456B"/>
<stop offset="1" stop-color="#9E1BCC"/>
</linearGradient>
</defs>
</svg>
