<svg width="269" height="30" viewBox="0 0 269 30" fill="none" xmlns="http://www.w3.org/2000/svg">
<path d="M18.98 11.432C18.404 10.376 17.612 9.572 16.604 9.02C15.596 8.468 14.42 8.192 13.076 8.192C11.588 8.192 10.268 8.528 9.116 9.2C7.964 9.872 7.064 10.832 6.416 12.08C5.768 13.328 5.444 14.768 5.444 16.4C5.444 18.08 5.768 19.544 6.416 20.792C7.088 22.04 8.012 23 9.188 23.672C10.364 24.344 11.732 24.68 13.292 24.68C15.212 24.68 16.784 24.176 18.008 23.168C19.232 22.136 20.036 20.708 20.42 18.884H11.78V15.032H25.388V19.424C25.052 21.176 24.332 22.796 23.228 24.284C22.124 25.772 20.696 26.972 18.944 27.884C17.216 28.772 15.272 29.216 13.112 29.216C10.688 29.216 8.492 28.676 6.524 27.596C4.58 26.492 3.044 24.968 1.916 23.024C0.812 21.08 0.26 18.872 0.26 16.4C0.26 13.928 0.812 11.72 1.916 9.776C3.044 7.808 4.58 6.284 6.524 5.204C8.492 4.1 10.676 3.548 13.076 3.548C15.908 3.548 18.368 4.244 20.456 5.636C22.544 7.004 23.984 8.936 24.776 11.432H18.98ZM27.8208 18.956C27.8208 16.94 28.2168 15.152 29.0088 13.592C29.8248 12.032 30.9168 10.832 32.2848 9.992C33.6768 9.152 35.2248 8.732 36.9288 8.732C38.4168 8.732 39.7128 9.032 40.8168 9.632C41.9448 10.232 42.8448 10.988 43.5168 11.9V9.056H48.5928V29H43.5168V26.084C42.8688 27.02 41.9688 27.8 40.8168 28.424C39.6888 29.024 38.3808 29.324 36.8928 29.324C35.2128 29.324 33.6768 28.892 32.2848 28.028C30.9168 27.164 29.8248 25.952 29.0088 24.392C28.2168 22.808 27.8208 20.996 27.8208 18.956ZM43.5168 19.028C43.5168 17.804 43.2768 16.76 42.7968 15.896C42.3168 15.008 41.6688 14.336 40.8528 13.88C40.0368 13.4 39.1608 13.16 38.2248 13.16C37.2888 13.16 36.4248 13.388 35.6328 13.844C34.8408 14.3 34.1928 14.972 33.6888 15.86C33.2088 16.724 32.9688 17.756 32.9688 18.956C32.9688 20.156 33.2088 21.212 33.6888 22.124C34.1928 23.012 34.8408 23.696 35.6328 24.176C36.4488 24.656 37.3128 24.896 38.2248 24.896C39.1608 24.896 40.0368 24.668 40.8528 24.212C41.6688 23.732 42.3168 23.06 42.7968 22.196C43.2768 21.308 43.5168 20.252 43.5168 19.028ZM58.5553 11.972C59.2033 11.012 60.0913 10.232 61.2193 9.632C62.3713 9.032 63.6793 8.732 65.1433 8.732C66.8473 8.732 68.3833 9.152 69.7513 9.992C71.1433 10.832 72.2353 12.032 73.0273 13.592C73.8433 15.128 74.2513 16.916 74.2513 18.956C74.2513 20.996 73.8433 22.808 73.0273 24.392C72.2353 25.952 71.1433 27.164 69.7513 28.028C68.3833 28.892 66.8473 29.324 65.1433 29.324C63.6553 29.324 62.3473 29.036 61.2193 28.46C60.1153 27.86 59.2273 27.092 58.5553 26.156V29H53.5153V2.36H58.5553V11.972ZM69.1033 18.956C69.1033 17.756 68.8513 16.724 68.3473 15.86C67.8673 14.972 67.2193 14.3 66.4033 13.844C65.6113 13.388 64.7473 13.16 63.8113 13.16C62.8993 13.16 62.0353 13.4 61.2193 13.88C60.4273 14.336 59.7793 15.008 59.2753 15.896C58.7953 16.784 58.5553 17.828 58.5553 19.028C58.5553 20.228 58.7953 21.272 59.2753 22.16C59.7793 23.048 60.4273 23.732 61.2193 24.212C62.0353 24.668 62.8993 24.896 63.8113 24.896C64.7473 24.896 65.6113 24.656 66.4033 24.176C67.2193 23.696 67.8673 23.012 68.3473 22.124C68.8513 21.236 69.1033 20.18 69.1033 18.956ZM82.9537 12.152C83.6017 11.096 84.4417 10.268 85.4737 9.668C86.5297 9.068 87.7297 8.768 89.0737 8.768V14.06H87.7417C86.1577 14.06 84.9577 14.432 84.1417 15.176C83.3497 15.92 82.9537 17.216 82.9537 19.064V29H77.9137V9.056H82.9537V12.152ZM95.0244 6.68C94.1364 6.68 93.3924 6.404 92.7924 5.852C92.2164 5.276 91.9284 4.568 91.9284 3.728C91.9284 2.888 92.2164 2.192 92.7924 1.64C93.3924 1.064 94.1364 0.775999 95.0244 0.775999C95.9124 0.775999 96.6444 1.064 97.2204 1.64C97.8204 2.192 98.1204 2.888 98.1204 3.728C98.1204 4.568 97.8204 5.276 97.2204 5.852C96.6444 6.404 95.9124 6.68 95.0244 6.68ZM97.5084 9.056V29H92.4684V9.056H97.5084ZM121.028 18.596C121.028 19.316 120.98 19.964 120.884 20.54H106.304C106.424 21.98 106.928 23.108 107.816 23.924C108.704 24.74 109.796 25.148 111.092 25.148C112.964 25.148 114.296 24.344 115.088 22.736H120.524C119.948 24.656 118.844 26.24 117.212 27.488C115.58 28.712 113.576 29.324 111.2 29.324C109.28 29.324 107.552 28.904 106.016 28.064C104.504 27.2 103.316 25.988 102.452 24.428C101.612 22.868 101.192 21.068 101.192 19.028C101.192 16.964 101.612 15.152 102.452 13.592C103.292 12.032 104.468 10.832 105.98 9.992C107.492 9.152 109.232 8.732 111.2 8.732C113.096 8.732 114.788 9.14 116.276 9.956C117.788 10.772 118.952 11.936 119.768 13.448C120.608 14.936 121.028 16.652 121.028 18.596ZM115.808 17.156C115.784 15.86 115.316 14.828 114.404 14.06C113.492 13.268 112.376 12.872 111.056 12.872C109.808 12.872 108.752 13.256 107.888 14.024C107.048 14.768 106.532 15.812 106.34 17.156H115.808ZM129.747 2.36V29H124.707V2.36H129.747ZM161.628 11.648C161.628 12.992 161.304 14.252 160.656 15.428C160.032 16.604 159.036 17.552 157.668 18.272C156.324 18.992 154.62 19.352 152.556 19.352H148.344V29H143.304V3.872H152.556C154.5 3.872 156.156 4.208 157.524 4.88C158.892 5.552 159.912 6.476 160.584 7.652C161.28 8.828 161.628 10.16 161.628 11.648ZM152.34 15.284C153.732 15.284 154.764 14.972 155.436 14.348C156.108 13.7 156.444 12.8 156.444 11.648C156.444 9.2 155.076 7.976 152.34 7.976H148.344V15.284H152.34ZM183.747 18.596C183.747 19.316 183.699 19.964 183.603 20.54H169.023C169.143 21.98 169.647 23.108 170.535 23.924C171.423 24.74 172.515 25.148 173.811 25.148C175.683 25.148 177.015 24.344 177.807 22.736H183.243C182.667 24.656 181.563 26.24 179.931 27.488C178.299 28.712 176.295 29.324 173.919 29.324C171.999 29.324 170.271 28.904 168.735 28.064C167.223 27.2 166.035 25.988 165.171 24.428C164.331 22.868 163.911 21.068 163.911 19.028C163.911 16.964 164.331 15.152 165.171 13.592C166.011 12.032 167.187 10.832 168.699 9.992C170.211 9.152 171.951 8.732 173.919 8.732C175.815 8.732 177.507 9.14 178.995 9.956C180.507 10.772 181.671 11.936 182.487 13.448C183.327 14.936 183.747 16.652 183.747 18.596ZM178.527 17.156C178.503 15.86 178.035 14.828 177.123 14.06C176.211 13.268 175.095 12.872 173.775 12.872C172.527 12.872 171.471 13.256 170.607 14.024C169.767 14.768 169.251 15.812 169.059 17.156H178.527ZM192.465 12.152C193.113 11.096 193.953 10.268 194.985 9.668C196.041 9.068 197.241 8.768 198.585 8.768V14.06H197.253C195.669 14.06 194.469 14.432 193.653 15.176C192.861 15.92 192.465 17.216 192.465 19.064V29H187.425V9.056H192.465V12.152ZM220.52 18.596C220.52 19.316 220.472 19.964 220.376 20.54H205.796C205.916 21.98 206.42 23.108 207.308 23.924C208.196 24.74 209.288 25.148 210.584 25.148C212.456 25.148 213.788 24.344 214.58 22.736H220.016C219.44 24.656 218.336 26.24 216.704 27.488C215.072 28.712 213.068 29.324 210.692 29.324C208.772 29.324 207.044 28.904 205.508 28.064C203.996 27.2 202.808 25.988 201.944 24.428C201.104 22.868 200.684 21.068 200.684 19.028C200.684 16.964 201.104 15.152 201.944 13.592C202.784 12.032 203.96 10.832 205.472 9.992C206.984 9.152 208.724 8.732 210.692 8.732C212.588 8.732 214.28 9.14 215.768 9.956C217.28 10.772 218.444 11.936 219.26 13.448C220.1 14.936 220.52 16.652 220.52 18.596ZM215.3 17.156C215.276 15.86 214.808 14.828 213.896 14.06C212.984 13.268 211.868 12.872 210.548 12.872C209.3 12.872 208.244 13.256 207.38 14.024C206.54 14.768 206.024 15.812 205.832 17.156H215.3ZM226.755 6.68C225.867 6.68 225.123 6.404 224.523 5.852C223.947 5.276 223.659 4.568 223.659 3.728C223.659 2.888 223.947 2.192 224.523 1.64C225.123 1.064 225.867 0.775999 226.755 0.775999C227.643 0.775999 228.375 1.064 228.951 1.64C229.551 2.192 229.851 2.888 229.851 3.728C229.851 4.568 229.551 5.276 228.951 5.852C228.375 6.404 227.643 6.68 226.755 6.68ZM229.239 9.056V29H224.199V9.056H229.239ZM239.258 12.152C239.906 11.096 240.746 10.268 241.778 9.668C242.834 9.068 244.034 8.768 245.378 8.768V14.06H244.046C242.462 14.06 241.262 14.432 240.446 15.176C239.654 15.92 239.258 17.216 239.258 19.064V29H234.218V9.056H239.258V12.152ZM247.477 18.956C247.477 16.94 247.873 15.152 248.665 13.592C249.481 12.032 250.573 10.832 251.941 9.992C253.333 9.152 254.881 8.732 256.585 8.732C258.073 8.732 259.369 9.032 260.473 9.632C261.601 10.232 262.501 10.988 263.173 11.9V9.056H268.249V29H263.173V26.084C262.525 27.02 261.625 27.8 260.473 28.424C259.345 29.024 258.037 29.324 256.549 29.324C254.869 29.324 253.333 28.892 251.941 28.028C250.573 27.164 249.481 25.952 248.665 24.392C247.873 22.808 247.477 20.996 247.477 18.956ZM263.173 19.028C263.173 17.804 262.933 16.76 262.453 15.896C261.973 15.008 261.325 14.336 260.509 13.88C259.693 13.4 258.817 13.16 257.881 13.16C256.945 13.16 256.081 13.388 255.289 13.844C254.497 14.3 253.849 14.972 253.345 15.86C252.865 16.724 252.625 17.756 252.625 18.956C252.625 20.156 252.865 21.212 253.345 22.124C253.849 23.012 254.497 23.696 255.289 24.176C256.105 24.656 256.969 24.896 257.881 24.896C258.817 24.896 259.693 24.668 260.509 24.212C261.325 23.732 261.973 23.06 262.453 22.196C262.933 21.308 263.173 20.252 263.173 19.028Z" fill="#1EAE98"/>
</svg>
